<svg id="drawing" xmlns="http://www.w3.org/2000/svg" version="1.1" xmlns:xlink="http://www.w3.org/1999/xlink" width="2785.46875" height="824" viewBox="-759.203125 -212.5 2785.46875 824"><defs id="SvgjsDefs1001"></defs><g id="SvgjsG1007" transform="translate(652 324)"><path id="SvgjsPath1008" d="M-1411.203125 -536.5H1374.265625V287.5H-1411.203125V-536.5Z " fill="#ffffff" opacity="1"></path><g id="SvgjsG1009"><path id="SvgjsPath1016" d="M0 2C0 -49 36.5 -100 73 -100 " fill="none" stroke="#0000cc" stroke-width="1"></path><path id="SvgjsPath1017" d="M-0.4375 1.5C-0.4375 -129 -35.9375 -259.5 -75.4375 -259.5 " fill="none" stroke="#0000cc" stroke-width="1"></path><path id="SvgjsPath1018" d="M0 0C0 39.5 -35.5 79 -75 79 " fill="none" stroke="#0000cc" stroke-width="1"></path><path id="SvgjsPath1019" d="M0 0C0 86.5 -35.5 173 -75 173 " fill="none" stroke="#0000cc" stroke-width="1"></path><path id="SvgjsPath1020" d="M-0.2031250149011612 0C-0.2031250149011612 130.5 -35.703125 261 -75.203125 261 " fill="none" stroke="#0000cc" stroke-width="1"></path><path id="SvgjsPath1059" d="M-148 260.5C-148 260.5 -153 260.5 -162 260.5 " fill="none" stroke="#6666ff" stroke-width="1"></path><path id="SvgjsPath1072" d="M185.875 -99C185.875 -154.5 190.875 -210 195.875 -210 " fill="none" stroke="#6666ff" stroke-width="1"></path><path id="SvgjsPath1073" d="M185.875 -99C185.875 -61.5 190.875 -24 195.875 -24 " fill="none" stroke="#6666ff" stroke-width="1"></path><path id="SvgjsPath1074" d="M185.875 -99C185.875 -28 190.875 43 195.875 43 " fill="none" stroke="#6666ff" stroke-width="1"></path><path id="SvgjsPath1075" d="M185.875 -99C185.875 5.5 190.875 110 195.875 110 " fill="none" stroke="#6666ff" stroke-width="1"></path><path id="SvgjsPath1076" d="M185.875 -99C185.875 27.5 190.875 154 195.875 154 " fill="none" stroke="#6666ff" stroke-width="1"></path><path id="SvgjsPath1090" d="M661.3125 -210C661.3125 -281 666.3125 -352 671.3125 -352 " fill="none" stroke="#6666ff" stroke-width="1"></path><path id="SvgjsPath1091" d="M661.3125 -210C661.3125 -232.5 666.3125 -255 671.3125 -255 " fill="none" stroke="#6666ff" stroke-width="1"></path><path id="SvgjsPath1092" d="M661.3125 -210C661.3125 -184 666.3125 -158 671.3125 -158 " fill="none" stroke="#6666ff" stroke-width="1"></path><path id="SvgjsPath1093" d="M661.3125 -210C661.3125 -150.5 666.3125 -91 671.3125 -91 " fill="none" stroke="#6666ff" stroke-width="1"></path><path id="SvgjsPath1105" d="M824.78125 -352C824.78125 -352 829.78125 -352 834.78125 -352 " fill="none" stroke="#6666ff" stroke-width="1"></path><path id="SvgjsPath1122" d="M790.3125 -255C790.3125 -277.5 795.3125 -300 800.3125 -300 " fill="none" stroke="#6666ff" stroke-width="1"></path><path id="SvgjsPath1123" d="M790.3125 -255C790.3125 -240 795.3125 -225 800.3125 -225 " fill="none" stroke="#6666ff" stroke-width="1"></path><path id="SvgjsPath1133" d="M987.265625 -300C987.265625 -307.5 992.265625 -315 997.265625 -315 " fill="none" stroke="#6666ff" stroke-width="1"></path><path id="SvgjsPath1134" d="M987.265625 -300C987.265625 -292.5 992.265625 -285 997.265625 -285 " fill="none" stroke="#6666ff" stroke-width="1"></path><path id="SvgjsPath1154" d="M984 -225C984 -240 989 -255 994 -255 " fill="none" stroke="#6666ff" stroke-width="1"></path><path id="SvgjsPath1155" d="M984 -225C984 -225 989 -225 994 -225 " fill="none" stroke="#6666ff" stroke-width="1"></path><path id="SvgjsPath1156" d="M984 -225C984 -210 989 -195 994 -195 " fill="none" stroke="#6666ff" stroke-width="1"></path><path id="SvgjsPath1183" d="M804 -158C804 -158 809 -158 814 -158 " fill="none" stroke="#6666ff" stroke-width="1"></path><path id="SvgjsPath1200" d="M785.125 -91C785.125 -106 790.125 -121 795.125 -121 " fill="none" stroke="#6666ff" stroke-width="1"></path><path id="SvgjsPath1201" d="M785.125 -91C785.125 -91 790.125 -91 795.125 -91 " fill="none" stroke="#6666ff" stroke-width="1"></path><path id="SvgjsPath1202" d="M785.125 -91C785.125 -76 790.125 -61 795.125 -61 " fill="none" stroke="#6666ff" stroke-width="1"></path><path id="SvgjsPath1244" d="M321.9375 43C321.9375 28 326.9375 13 331.9375 13 " fill="none" stroke="#6666ff" stroke-width="1"></path><path id="SvgjsPath1245" d="M321.9375 43C321.9375 43 326.9375 43 331.9375 43 " fill="none" stroke="#6666ff" stroke-width="1"></path><path id="SvgjsPath1246" d="M321.9375 43C321.9375 58 326.9375 73 331.9375 73 " fill="none" stroke="#6666ff" stroke-width="1"></path><path id="SvgjsPath1342" d="M-284.765625 -393.5C-284.765625 -453.5 -289.765625 -513.5 -298.765625 -513.5 " fill="none" stroke="#6666ff" stroke-width="1"></path><path id="SvgjsPath1343" d="M-284.765625 -393.5C-284.765625 -438.5 -289.765625 -483.5 -298.765625 -483.5 " fill="none" stroke="#6666ff" stroke-width="1"></path><path id="SvgjsPath1344" d="M-284.765625 -393.5C-284.765625 -423.5 -289.765625 -453.5 -298.765625 -453.5 " fill="none" stroke="#6666ff" stroke-width="1"></path><path id="SvgjsPath1345" d="M-284.765625 -393.5C-284.765625 -408.5 -289.765625 -423.5 -298.765625 -423.5 " fill="none" stroke="#6666ff" stroke-width="1"></path><path id="SvgjsPath1346" d="M-284.765625 -393.5C-284.765625 -393.5 -289.765625 -393.5 -298.765625 -393.5 " fill="none" stroke="#6666ff" stroke-width="1"></path><path id="SvgjsPath1347" d="M-284.765625 -393.5C-284.765625 -378.5 -289.765625 -363.5 -298.765625 -363.5 " fill="none" stroke="#6666ff" stroke-width="1"></path><path id="SvgjsPath1348" d="M-284.765625 -393.5C-284.765625 -363.5 -289.765625 -333.5 -298.765625 -333.5 " fill="none" stroke="#6666ff" stroke-width="1"></path><path id="SvgjsPath1349" d="M-284.765625 -393.5C-284.765625 -348.5 -289.765625 -303.5 -298.765625 -303.5 " fill="none" stroke="#6666ff" stroke-width="1"></path><path id="SvgjsPath1350" d="M-284.765625 -393.5C-284.765625 -333.5 -289.765625 -273.5 -298.765625 -273.5 " fill="none" stroke="#6666ff" stroke-width="1"></path><path id="SvgjsPath1390" d="M-516.453125 -108.5C-516.453125 -116 -521.453125 -123.5 -530.453125 -123.5 " fill="none" stroke="#6666ff" stroke-width="1"></path><path id="SvgjsPath1391" d="M-516.453125 -108.5C-516.453125 -101 -521.453125 -93.5 -530.453125 -93.5 " fill="none" stroke="#6666ff" stroke-width="1"></path><path id="SvgjsPath1406" d="M-284.765625 -153.5C-284.765625 -198.5 -289.765625 -243.5 -298.765625 -243.5 " fill="none" stroke="#6666ff" stroke-width="1"></path><path id="SvgjsPath1407" d="M-284.765625 -153.5C-284.765625 -183.5 -289.765625 -213.5 -298.765625 -213.5 " fill="none" stroke="#6666ff" stroke-width="1"></path><path id="SvgjsPath1408" d="M-284.765625 -153.5C-284.765625 -168.5 -289.765625 -183.5 -298.765625 -183.5 " fill="none" stroke="#6666ff" stroke-width="1"></path><path id="SvgjsPath1409" d="M-284.765625 -153.5C-284.765625 -153.5 -289.765625 -153.5 -298.765625 -153.5 " fill="none" stroke="#6666ff" stroke-width="1"></path><path id="SvgjsPath1410" d="M-284.765625 -153.5C-284.765625 -131 -289.765625 -108.5 -298.765625 -108.5 " fill="none" stroke="#6666ff" stroke-width="1"></path><path id="SvgjsPath1411" d="M-284.765625 -153.5C-284.765625 -108.5 -289.765625 -63.5 -298.765625 -63.5 " fill="none" stroke="#6666ff" stroke-width="1"></path><path id="SvgjsPath1431" d="M-542.515625 -18.5C-542.515625 -26 -547.515625 -33.5 -556.515625 -33.5 " fill="none" stroke="#6666ff" stroke-width="1"></path><path id="SvgjsPath1432" d="M-542.515625 -18.5C-542.515625 -11 -547.515625 -3.5 -556.515625 -3.5 " fill="none" stroke="#6666ff" stroke-width="1"></path><path id="SvgjsPath1445" d="M-185.765625 -258.5C-185.765625 -326 -190.765625 -393.5 -199.765625 -393.5 " fill="none" stroke="#6666ff" stroke-width="1"></path><path id="SvgjsPath1446" d="M-185.765625 -258.5C-185.765625 -206 -190.765625 -153.5 -199.765625 -153.5 " fill="none" stroke="#6666ff" stroke-width="1"></path><path id="SvgjsPath1447" d="M-185.765625 -258.5C-185.765625 -138.5 -190.765625 -18.5 -199.765625 -18.5 " fill="none" stroke="#6666ff" stroke-width="1"></path></g><g id="SvgjsG1010"><g id="SvgjsG1011" transform="translate(-26 -27)"><path id="SvgjsPath1012" d="M0 7A7 7 0 0 1 7 0H45A7 7 0 0 1 52 7V47A7 7 0 0 1 45 54H7A7 7 0 0 1 0 47Z " stroke-width="0" stroke="#ffffff" fill="#6666ff" opacity="1"></path><g id="SvgjsG1013" transform="translate(16 8)"><g id="SvgjsG1014" transform="translate(0 0)"><text id="SvgjsText1015" font-family="微软雅黑,宋体" fill="#ffffff" font-size="27" font-weight="normal" font-style="normal" text-anchor="start" x="0" y="29">js</text></g></g></g><g id="SvgjsG1021" transform="translate(-162 53.5)"><path id="SvgjsPath1022" d="M0 6A6 6 0 0 1 6 0H84A6 6 0 0 1 90 6V42A6 6 0 0 1 84 48H6A6 6 0 0 1 0 42Z " stroke-width="0" stroke="#6666ff" fill="none" opacity="0"></path><path id="SvgjsPath1023" d="M0 25L-16 25 " stroke="rgba(0, 0, 0, 0)" stroke-width="1"></path><g id="SvgjsG1024" transform="translate(-15 17)"><path id="SvgjsPath1025" d="M0 7A7 7 0 0 1 7 0A7 7 0 1 1 0 7Z " fill="#ffffff"></path><path id="SvgjsPath1026" d="M7 1A6 6 0 0 0 1 7A6 6 0 1 0 7 1ZM0 7A7 7 0 0 1 7 0A7 7 0 1 1 0 7ZM3 6H6V3H8V6H11V8H8V11H6V8H3V6Z " fill="#7c8084"></path></g><g id="SvgjsG1027" transform="translate(46 8)"><g id="SvgjsG1028" transform="translate(0 5)"><text id="SvgjsText1029" font-family="微软雅黑,宋体" fill="#6666ff" font-size="14" font-weight="normal" font-style="normal" text-anchor="start" x="0" y="15">事件</text></g><g id="SvgjsG1030" transform="translate(-30 0)" style="cursor: pointer;"><path id="SvgjsPath1031" d="M3 15A12 12 0 0 1 15 3A12 12 0 1 1 3 15Z " fill="#000000"></path><path id="SvgjsPath1032" d="M14.986000061035156 3C16.649999618530273 3 18.208999633789062 3.315000057220459 19.663000106811523 3.947000026702881C21.11600112915039 4.578999996185303 22.38599967956543 5.433000087738037 23.477001190185547 6.51200008392334C24.564001083374023 7.591000080108643 25.423999786376953 8.861000061035156 26.05500030517578 10.324000358581543C26.687999725341797 11.786999702453613 27 13.33899974822998 27 14.986000061035156C27 16.649999618530273 26.687999725341797 18.208999633789062 26.055999755859375 19.663000106811523C25.424999237060547 21.11600112915039 24.565000534057617 22.38599967956543 23.47800064086914 23.477001190185547C22.38599967956543 24.564001083374023 21.117000579833984 25.423999786376953 19.663999557495117 26.05500030517578C18.208999633789062 26.687999725341797 16.649999618530273 27 14.986000061035156 27C13.33899974822998 27 11.78600025177002 26.687999725341797 10.322999954223633 26.055999755859375C8.859999656677246 25.424999237060547 7.591000080108643 24.565000534057617 6.51099967956543 23.47800064086914C5.432999610900879 22.38599967956543 4.576999664306641 21.117000579833984 3.94599986076355 19.663999557495117C3.315999984741211 18.208999633789062 3 16.649999618530273 3 14.986000061035156C3 13.33899974822998 3.315999984741211 11.78600025177002 3.947000026702881 10.322999954223633C4.578999996185303 8.859999656677246 5.434000015258789 7.585999965667725 6.513000011444092 6.51200008392334C7.5920000076293945 5.434000015258789 8.86199951171875 4.578999996185303 10.324999809265137 3.947000026702881C11.786999702453613 3.315000057220459 13.34000015258789 3 14.986000061035156 3ZM19.238000869750977 8.074000358581543C18.617000579833984 8.074000358581543 18.09200096130371 8.329999923706055 17.65999984741211 8.8410005569458C17.23000144958496 9.354000091552734 17.01500129699707 9.975000381469727 17.01500129699707 10.709000587463379C17.01500129699707 11.459000587463379 17.23000144958496 12.09000015258789 17.65999984741211 12.600000381469727C18.091001510620117 13.112000465393066 18.617000579833984 13.369000434875488 19.238000869750977 13.369000434875488C19.860000610351562 13.369000434875488 20.38300132751465 13.112000465393066 20.815000534057617 12.600000381469727C21.2450008392334 12.09000015258789 21.459001541137695 11.458000183105469 21.459001541137695 10.709000587463379C21.459001541137695 9.976000785827637 21.2450008392334 9.355000495910645 20.815000534057617 8.8410005569458C20.386999130249023 8.331000328063965 19.860000610351562 8.074000358581543 19.238000869750977 8.074000358581543ZM8.074999809265137 13.256999969482422H13.230999946594238V11.555999755859375H8.074999809265137V13.256999969482422ZM21.788000106811523 18.413999557495117C21.808000564575195 18.378000259399414 21.816999435424805 18.314998626708984 21.816999435424805 18.222999572753906C21.816999435424805 18.128999710083008 21.804000854492188 18.031999588012695 21.7760009765625 17.920000076293945C21.749000549316406 17.812000274658203 21.69300079345703 17.709999084472656 21.611000061035156 17.61699867248535C21.530000686645508 17.527000427246094 21.417999267578125 17.452999114990234 21.269001007080078 17.39900016784668C20.847999572753906 17.909000396728516 20.32900047302246 18.36699867248535 19.707000732421875 18.770999908447266C19.174999237060547 19.115999221801758 18.503000259399414 19.430999755859375 17.68600082397461 19.71299934387207C16.87299919128418 20 15.916000366210938 20.14299964904785 14.821000099182129 20.14299964904785C13.722000122070312 20.14299964904785 12.791000366210938 20.001998901367188 12.022000312805176 19.7189998626709C11.256000518798828 19.432998657226562 10.605000495910645 19.119998931884766 10.074999809265137 18.772998809814453C9.470000267028809 18.371000289916992 8.960000038146973 17.90999984741211 8.539000511169434 17.400999069213867C8.390999794006348 17.437000274658203 8.282000541687012 17.5 8.210000038146973 17.593000411987305C8.133999824523926 17.684999465942383 8.081000328063965 17.785999298095703 8.045000076293945 17.895000457763672C8.008999824523926 18.006999969482422 7.988999843597412 18.104999542236328 7.988999843597412 18.198999404907227C7.988999843597412 18.291000366210938 7.999000072479248 18.362998962402344 8.015999794006348 18.41899871826172C8.03600025177002 18.435998916625977 8.039000511169434 18.447999954223633 8.029000282287598 18.45800018310547C8.022000312805176 18.468000411987305 8.026000022888184 18.48200035095215 8.045000076293945 18.5C8.210000038146973 18.993000030517578 8.501999855041504 19.45400047302246 8.920000076293945 19.885000228881836C9.340999603271484 20.312000274658203 9.854000091552734 20.68899917602539 10.458999633789062 21.010000228881836C11.062000274658203 21.327999114990234 11.741999626159668 21.576000213623047 12.501999855041504 21.75C13.26200008392334 21.923999786376953 14.060999870300293 22.010000228881836 14.902000427246094 22.010000228881836C16.56599998474121 22.010000228881836 18 21.70599937438965 19.207000732421875 21.104999542236328C20.413000106811523 20.500999450683594 21.23900032043457 19.708999633789062 21.676000595092773 18.717998504638672C21.676000595092773 18.68199920654297 21.687000274658203 18.645999908447266 21.703001022338867 18.60999870300293C21.725000381469727 18.572999954223633 21.750999450683594 18.506000518798828 21.788000106811523 18.413999557495117L21.788000106811523 18.413999557495117Z " fill="#ffe201" transform="translate(0 0)"></path></g></g></g><g id="SvgjsG1033" transform="translate(-232 147.5)"><path id="SvgjsPath1034" d="M0 6A6 6 0 0 1 6 0H154A6 6 0 0 1 160 6V42A6 6 0 0 1 154 48H6A6 6 0 0 1 0 42Z " stroke-width="0" stroke="#6666ff" fill="none" opacity="0"></path><path id="SvgjsPath1035" d="M0 25L-16 25 " stroke="rgba(0, 0, 0, 0)" stroke-width="1"></path><g id="SvgjsG1036" transform="translate(-15 17)"><path id="SvgjsPath1037" d="M0 7A7 7 0 0 1 7 0A7 7 0 1 1 0 7Z " fill="#ffffff"></path><path id="SvgjsPath1038" d="M7 1A6 6 0 0 0 1 7A6 6 0 1 0 7 1ZM0 7A7 7 0 0 1 7 0A7 7 0 1 1 0 7ZM3 6H6V3H8V6H11V8H8V11H6V8H3V6Z " fill="#7c8084"></path></g><g id="SvgjsG1039" transform="translate(46 8)"><g id="SvgjsG1040" transform="translate(0 5)"><text id="SvgjsText1041" font-family="微软雅黑,宋体" fill="#6666ff" font-size="14" font-weight="normal" font-style="normal" text-anchor="start" x="0" y="15">错误处理与调试</text></g><g id="SvgjsG1042" transform="translate(-30 0)" style="cursor: pointer;"><path id="SvgjsPath1043" d="M3 15A12 12 0 0 1 15 3A12 12 0 1 1 3 15Z " fill="#000000"></path><path id="SvgjsPath1044" d="M14.986000061035156 3C16.649999618530273 3 18.208999633789062 3.315000057220459 19.663000106811523 3.947000026702881C21.11600112915039 4.578999996185303 22.38599967956543 5.433000087738037 23.477001190185547 6.51200008392334C24.564001083374023 7.591000080108643 25.423999786376953 8.861000061035156 26.05500030517578 10.324000358581543C26.687999725341797 11.786999702453613 27 13.33899974822998 27 14.986000061035156C27 16.649999618530273 26.687999725341797 18.208999633789062 26.055999755859375 19.663000106811523C25.424999237060547 21.11600112915039 24.565000534057617 22.38599967956543 23.47800064086914 23.477001190185547C22.38599967956543 24.564001083374023 21.117000579833984 25.423999786376953 19.663999557495117 26.05500030517578C18.208999633789062 26.687999725341797 16.649999618530273 27 14.986000061035156 27C13.33899974822998 27 11.78600025177002 26.687999725341797 10.322999954223633 26.055999755859375C8.859999656677246 25.424999237060547 7.591000080108643 24.565000534057617 6.51099967956543 23.47800064086914C5.432999610900879 22.38599967956543 4.576999664306641 21.117000579833984 3.94599986076355 19.663999557495117C3.315999984741211 18.208999633789062 3 16.649999618530273 3 14.986000061035156C3 13.33899974822998 3.315999984741211 11.78600025177002 3.947000026702881 10.322999954223633C4.578999996185303 8.859999656677246 5.434000015258789 7.585999965667725 6.513000011444092 6.51200008392334C7.5920000076293945 5.434000015258789 8.86199951171875 4.578999996185303 10.324999809265137 3.947000026702881C11.786999702453613 3.315000057220459 13.34000015258789 3 14.986000061035156 3ZM19.238000869750977 8.074000358581543C18.617000579833984 8.074000358581543 18.09200096130371 8.329999923706055 17.65999984741211 8.8410005569458C17.23000144958496 9.354000091552734 17.01500129699707 9.975000381469727 17.01500129699707 10.709000587463379C17.01500129699707 11.459000587463379 17.23000144958496 12.09000015258789 17.65999984741211 12.600000381469727C18.091001510620117 13.112000465393066 18.617000579833984 13.369000434875488 19.238000869750977 13.369000434875488C19.860000610351562 13.369000434875488 20.38300132751465 13.112000465393066 20.815000534057617 12.600000381469727C21.2450008392334 12.09000015258789 21.459001541137695 11.458000183105469 21.459001541137695 10.709000587463379C21.459001541137695 9.976000785827637 21.2450008392334 9.355000495910645 20.815000534057617 8.8410005569458C20.386999130249023 8.331000328063965 19.860000610351562 8.074000358581543 19.238000869750977 8.074000358581543ZM8.074999809265137 13.256999969482422H13.230999946594238V11.555999755859375H8.074999809265137V13.256999969482422ZM21.788000106811523 18.413999557495117C21.808000564575195 18.378000259399414 21.816999435424805 18.314998626708984 21.816999435424805 18.222999572753906C21.816999435424805 18.128999710083008 21.804000854492188 18.031999588012695 21.7760009765625 17.920000076293945C21.749000549316406 17.812000274658203 21.69300079345703 17.709999084472656 21.611000061035156 17.61699867248535C21.530000686645508 17.527000427246094 21.417999267578125 17.452999114990234 21.269001007080078 17.39900016784668C20.847999572753906 17.909000396728516 20.32900047302246 18.36699867248535 19.707000732421875 18.770999908447266C19.174999237060547 19.115999221801758 18.503000259399414 19.430999755859375 17.68600082397461 19.71299934387207C16.87299919128418 20 15.916000366210938 20.14299964904785 14.821000099182129 20.14299964904785C13.722000122070312 20.14299964904785 12.791000366210938 20.001998901367188 12.022000312805176 19.7189998626709C11.256000518798828 19.432998657226562 10.605000495910645 19.119998931884766 10.074999809265137 18.772998809814453C9.470000267028809 18.371000289916992 8.960000038146973 17.90999984741211 8.539000511169434 17.400999069213867C8.390999794006348 17.437000274658203 8.282000541687012 17.5 8.210000038146973 17.593000411987305C8.133999824523926 17.684999465942383 8.081000328063965 17.785999298095703 8.045000076293945 17.895000457763672C8.008999824523926 18.006999969482422 7.988999843597412 18.104999542236328 7.988999843597412 18.198999404907227C7.988999843597412 18.291000366210938 7.999000072479248 18.362998962402344 8.015999794006348 18.41899871826172C8.03600025177002 18.435998916625977 8.039000511169434 18.447999954223633 8.029000282287598 18.45800018310547C8.022000312805176 18.468000411987305 8.026000022888184 18.48200035095215 8.045000076293945 18.5C8.210000038146973 18.993000030517578 8.501999855041504 19.45400047302246 8.920000076293945 19.885000228881836C9.340999603271484 20.312000274658203 9.854000091552734 20.68899917602539 10.458999633789062 21.010000228881836C11.062000274658203 21.327999114990234 11.741999626159668 21.576000213623047 12.501999855041504 21.75C13.26200008392334 21.923999786376953 14.060999870300293 22.010000228881836 14.902000427246094 22.010000228881836C16.56599998474121 22.010000228881836 18 21.70599937438965 19.207000732421875 21.104999542236328C20.413000106811523 20.500999450683594 21.23900032043457 19.708999633789062 21.676000595092773 18.717998504638672C21.676000595092773 18.68199920654297 21.687000274658203 18.645999908447266 21.703001022338867 18.60999870300293C21.725000381469727 18.572999954223633 21.750999450683594 18.506000518798828 21.788000106811523 18.413999557495117L21.788000106811523 18.413999557495117Z " fill="#ffe201" transform="translate(0 0)"></path></g></g></g><g id="SvgjsG1045" transform="translate(-1401.203125 247.5)"><path id="SvgjsPath1046" d="M0 4A4 4 0 0 1 4 0H1238A4 4 0 0 1 1242 4V20A4 4 0 0 1 1238 24H4A4 4 0 0 1 0 20Z " stroke-width="0" stroke="#6666ff" fill="none" opacity="0"></path><g id="SvgjsG1047" transform="translate(10 3)"><g id="SvgjsG1048" transform="translate(0 0)"><text id="SvgjsText1049" font-family="微软雅黑,宋体" fill="#6666ff" font-size="13" font-weight="normal" font-style="normal" text-anchor="start" x="0" y="14">innerHTML:也就是从对象的起始位置到终止位置的全部内容,包括Html标签。innerText: 从起始位置到终止位置的内容, 但它去除Html标签 ;outerHTML:　除了包含innerHTML的全部内容外, 还包含对象标签本身。</text></g></g></g><g id="SvgjsG1050" transform="translate(-132 241.5)"><path id="SvgjsPath1051" d="M0 4A4 4 0 0 1 4 0H56A4 4 0 0 1 60 4V32A4 4 0 0 1 56 36H4A4 4 0 0 1 0 32Z " stroke-width="0" stroke="#6666ff" fill="none" opacity="0"></path><path id="SvgjsPath1052" d="M0 19L-16 19 " stroke="#6666ff" stroke-width="1"></path><g id="SvgjsG1053" transform="translate(-15 11)"><path id="SvgjsPath1054" d="M0 7A7 7 0 0 1 7 0A7 7 0 1 1 0 7Z " fill="#ffffff"></path><path id="SvgjsPath1055" d="M7 1A6 6 0 0 0 1 7A6 6 0 1 0 7 1ZM0 7A7 7 0 0 1 7 0A7 7 0 1 1 0 7ZM3 6H11V8H3V5Z " fill="#7c8084"></path></g><g id="SvgjsG1056" transform="translate(16 8)"><g id="SvgjsG1057" transform="translate(0 0)"><text id="SvgjsText1058" font-family="微软雅黑,宋体" fill="#6666ff" font-size="14" font-weight="normal" font-style="normal" text-anchor="start" x="0" y="15">基础</text></g></g></g><g id="SvgjsG1060" transform="translate(72 -124)"><path id="SvgjsPath1061" d="M0 6A6 6 0 0 1 6 0H90A6 6 0 0 1 96 6V42A6 6 0 0 1 90 48H6A6 6 0 0 1 0 42Z " stroke-width="0" stroke="#6666ff" fill="none" opacity="0"></path><path id="SvgjsPath1062" d="M96 25L112 25 " stroke="#6666ff" stroke-width="1"></path><g id="SvgjsG1063" transform="translate(97 17)"><path id="SvgjsPath1064" d="M0 7A7 7 0 0 1 7 0A7 7 0 1 1 0 7Z " fill="#ffffff"></path><path id="SvgjsPath1065" d="M7 1A6 6 0 0 0 1 7A6 6 0 1 0 7 1ZM0 7A7 7 0 0 1 7 0A7 7 0 1 1 0 7ZM3 6H11V8H3V5Z " fill="#7c8084"></path></g><g id="SvgjsG1066" transform="translate(46 8)"><g id="SvgjsG1067" transform="translate(0 5)"><text id="SvgjsText1068" font-family="微软雅黑,宋体" fill="#6666ff" font-size="14" font-weight="normal" font-style="normal" text-anchor="start" x="0" y="15">BOM</text></g><g id="SvgjsG1069" transform="translate(-30 0)" style="cursor: pointer;"><path id="SvgjsPath1070" d="M3 15A12 12 0 0 1 15 3A12 12 0 1 1 3 15Z " fill="#000000"></path><path id="SvgjsPath1071" d="M14.913000106811523 3C8.335000038146973 3 3 8.331999778747559 3 14.911999702453613S8.333999633789062 26.823999404907227 14.913000106811523 26.823999404907227C21.493000030517578 26.823999404907227 26.82699966430664 21.492000579833984 26.82699966430664 14.911999702453613C26.826000213623047 8.331999778747559 21.492000579833984 3 14.913000106811523 3ZM19.261999130249023 10.244000434875488C20.511999130249023 10.244000434875488 21.525999069213867 11.258000373840332 21.525999069213867 12.508000373840332C21.525999069213867 13.756999969482422 20.511999130249023 14.770000457763672 19.261999130249023 14.770000457763672C18.013999938964844 14.770000457763672 16.998998641967773 13.756999969482422 16.998998641967773 12.508000373840332C16.999000549316406 11.256999969482422 18.013999938964844 10.244000434875488 19.261999130249023 10.244000434875488ZM10.517999649047852 10.244000434875488C11.767999649047852 10.244000434875488 12.779999732971191 11.258000373840332 12.779999732971191 12.508000373840332C12.779999732971191 13.756999969482422 11.767999649047852 14.770000457763672 10.517999649047852 14.770000457763672S8.254999160766602 13.756999969482422 8.254999160766602 12.508000373840332C8.253999710083008 11.256999969482422 9.267999649047852 10.244000434875488 10.517999649047852 10.244000434875488ZM21.339000701904297 19.05500030517578C19.881000518798828 21.172000885009766 17.479000091552734 22.439001083374023 14.913000106811523 22.439001083374023C12.346000671386719 22.439001083374023 9.940999984741211 21.172000885009766 8.484001159667969 19.05299949645996C8.157000541687012 18.578001022338867 8.277000427246094 17.93000030517578 8.754000663757324 17.60300064086914C9.22900104522705 17.2760009765625 9.87700080871582 17.39699935913086 10.204000473022461 17.871999740600586C11.271000862121582 19.426000595092773 13.033000946044922 20.351999282836914 14.914000511169434 20.351999282836914C16.792001724243164 20.351999282836914 18.553001403808594 19.423999786376953 19.621000289916992 17.871999740600586C19.95199966430664 17.39699935913086 20.600000381469727 17.2760009765625 21.06999969482422 17.60300064086914C21.54599952697754 17.93000030517578 21.66699981689453 18.577999114990234 21.339000701904297 19.05500030517578Z " fill="#ffe201" transform="translate(0 0)"></path></g></g></g><g id="SvgjsG1077" transform="translate(194.875 -230)"><path id="SvgjsPath1078" d="M0 4A4 4 0 0 1 4 0H444A4 4 0 0 1 448 4V34A4 4 0 0 1 444 38H4A4 4 0 0 1 0 34Z " stroke-width="0" stroke="#6666ff" fill="none" opacity="0"></path><path id="SvgjsPath1079" d="M448 20L464 20 " stroke="#6666ff" stroke-width="1"></path><g id="SvgjsG1080" transform="translate(449 12)"><path id="SvgjsPath1081" d="M0 7A7 7 0 0 1 7 0A7 7 0 1 1 0 7Z " fill="#ffffff"></path><path id="SvgjsPath1082" d="M7 1A6 6 0 0 0 1 7A6 6 0 1 0 7 1ZM0 7A7 7 0 0 1 7 0A7 7 0 1 1 0 7ZM3 6H11V8H3V5Z " fill="#7c8084"></path></g><g id="SvgjsG1083" transform="translate(40 3)"><g id="SvgjsG1084" transform="translate(0 6)"><text id="SvgjsText1085" font-family="微软雅黑,宋体" fill="#6666ff" font-size="13" font-weight="normal" font-style="normal" text-anchor="start" x="0" y="14">window（js访问浏览器窗口的接口，ecmascript规定的global对象）</text></g><g id="SvgjsG1086" transform="translate(-30 0)" style="cursor: pointer;"><path id="SvgjsPath1087" d="M3 15A12 12 0 0 1 15 3A12 12 0 1 1 3 15Z " fill="#38628c" transform="translate(0 0)"></path><g id="SvgjsG1088" transform="translate(3 3)"><text id="SvgjsText1089" font-family="黑体" fill="#ffffff" font-size="20" text-anchor="middle" x="12" y="19">1</text></g></g></g></g><g id="SvgjsG1094" transform="translate(670.3125 -372)"><path id="SvgjsPath1095" d="M0 4A4 4 0 0 1 4 0H132A4 4 0 0 1 136 4V34A4 4 0 0 1 132 38H4A4 4 0 0 1 0 34Z " stroke-width="0" stroke="#6666ff" fill="none" opacity="0"></path><path id="SvgjsPath1096" d="M136 20L152 20 " stroke="#6666ff" stroke-width="1"></path><g id="SvgjsG1097" transform="translate(137 12)"><path id="SvgjsPath1098" d="M0 7A7 7 0 0 1 7 0A7 7 0 1 1 0 7Z " fill="#ffffff"></path><path id="SvgjsPath1099" d="M7 1A6 6 0 0 0 1 7A6 6 0 1 0 7 1ZM0 7A7 7 0 0 1 7 0A7 7 0 1 1 0 7ZM3 6H11V8H3V5Z " fill="#7c8084"></path></g><g id="SvgjsG1100" transform="translate(40 3)"><g id="SvgjsG1101" transform="translate(0 6)"><text id="SvgjsText1102" font-family="微软雅黑,宋体" fill="#6666ff" font-size="13" font-weight="normal" font-style="normal" text-anchor="start" x="0" y="14">window.name</text></g><g id="SvgjsG1103" transform="translate(-30 0)" style="cursor: pointer;"><path id="SvgjsPath1104" d="M3 3.0450000762939453H7.36299991607666V27.045000076293945H3V3.0450000762939453ZM22.091999053955078 15C24.204998016357422 15 26.040998458862305 14.597999572753906 27 14V3.6540000438690186C26.04199981689453 4.250999927520752 24.204998016357422 4.654000282287598 22.091999053955078 4.654000282287598C19.976999282836914 4.654000282287598 18.138999938964844 4.250999927520752 17.180999755859375 3.6540000438690186V14C18.139999389648438 14.597999572753906 19.979000091552734 15 22.091999053955078 15ZM17.18199920654297 3.6579999923706055C16.076000213623047 3.255000114440918 14.454000473022461 3 12.649999618530273 3C10.375999450683594 3 8.393999099731445 3.4029998779296875 7.362999439239502 4V14.345999717712402C8.392999649047852 13.74899959564209 10.37399959564209 13.345999717712402 12.649999618530273 13.345999717712402C14.453999519348145 13.345999717712402 16.076000213623047 13.601999282836914 17.18199920654297 14.003000259399414V3.6579999923706055Z " fill="#488f55" transform="translate(0 0)"></path></g></g></g><g id="SvgjsG1106" transform="translate(833.78125 -365)"><path id="SvgjsPath1107" d="M0 4A4 4 0 0 1 4 0H202A4 4 0 0 1 206 4V20A4 4 0 0 1 202 24H4A4 4 0 0 1 0 20Z " stroke-width="0" stroke="#6666ff" fill="none" opacity="0"></path><g id="SvgjsG1108" transform="translate(10 3)"><g id="SvgjsG1109" transform="translate(0 0)"><text id="SvgjsText1110" font-family="微软雅黑,宋体" fill="#6666ff" font-size="13" font-weight="normal" font-style="normal" text-anchor="start" x="0" y="14">DOMContentLoaded与onload</text></g></g></g><g id="SvgjsG1111" transform="translate(670.3125 -275)"><path id="SvgjsPath1112" d="M0 4A4 4 0 0 1 4 0H98A4 4 0 0 1 102 4V34A4 4 0 0 1 98 38H4A4 4 0 0 1 0 34Z " stroke-width="0" stroke="#6666ff" fill="none" opacity="0"></path><path id="SvgjsPath1113" d="M102 20L118 20 " stroke="#6666ff" stroke-width="1"></path><g id="SvgjsG1114" transform="translate(103 12)"><path id="SvgjsPath1115" d="M0 7A7 7 0 0 1 7 0A7 7 0 1 1 0 7Z " fill="#ffffff"></path><path id="SvgjsPath1116" d="M7 1A6 6 0 0 0 1 7A6 6 0 1 0 7 1ZM0 7A7 7 0 0 1 7 0A7 7 0 1 1 0 7ZM3 6H11V8H3V5Z " fill="#7c8084"></path></g><g id="SvgjsG1117" transform="translate(40 3)"><g id="SvgjsG1118" transform="translate(0 6)"><text id="SvgjsText1119" font-family="微软雅黑,宋体" fill="#6666ff" font-size="13" font-weight="normal" font-style="normal" text-anchor="start" x="0" y="14">窗口大小</text></g><g id="SvgjsG1120" transform="translate(-30 0)" style="cursor: pointer;"><path id="SvgjsPath1121" d="M3 3.0450000762939453H7.36299991607666V27.045000076293945H3V3.0450000762939453ZM22.091999053955078 15C24.204998016357422 15 26.040998458862305 14.597999572753906 27 14V3.6540000438690186C26.04199981689453 4.250999927520752 24.204998016357422 4.654000282287598 22.091999053955078 4.654000282287598C19.976999282836914 4.654000282287598 18.138999938964844 4.250999927520752 17.180999755859375 3.6540000438690186V14C18.139999389648438 14.597999572753906 19.979000091552734 15 22.091999053955078 15ZM17.18199920654297 3.6579999923706055C16.076000213623047 3.255000114440918 14.454000473022461 3 12.649999618530273 3C10.375999450683594 3 8.393999099731445 3.4029998779296875 7.362999439239502 4V14.345999717712402C8.392999649047852 13.74899959564209 10.37399959564209 13.345999717712402 12.649999618530273 13.345999717712402C14.453999519348145 13.345999717712402 16.076000213623047 13.601999282836914 17.18199920654297 14.003000259399414V3.6579999923706055Z " fill="#488f55" transform="translate(0 0)"></path></g></g></g><g id="SvgjsG1124" transform="translate(799.3125 -313)"><path id="SvgjsPath1125" d="M0 4A4 4 0 0 1 4 0H166A4 4 0 0 1 170 4V20A4 4 0 0 1 166 24H4A4 4 0 0 1 0 20Z " stroke-width="0" stroke="#6666ff" fill="none" opacity="0"></path><path id="SvgjsPath1126" d="M170 13L186 13 " stroke="#6666ff" stroke-width="1"></path><g id="SvgjsG1127" transform="translate(171 5)"><path id="SvgjsPath1128" d="M0 7A7 7 0 0 1 7 0A7 7 0 1 1 0 7Z " fill="#ffffff"></path><path id="SvgjsPath1129" d="M7 1A6 6 0 0 0 1 7A6 6 0 1 0 7 1ZM0 7A7 7 0 0 1 7 0A7 7 0 1 1 0 7ZM3 6H11V8H3V5Z " fill="#7c8084"></path></g><g id="SvgjsG1130" transform="translate(10 3)"><g id="SvgjsG1131" transform="translate(0 0)"><text id="SvgjsText1132" font-family="微软雅黑,宋体" fill="#6666ff" font-size="13" font-weight="normal" font-style="normal" text-anchor="start" x="0" y="14">outerWidth,outerHeight</text></g></g></g><g id="SvgjsG1135" transform="translate(996.265625 -328)"><path id="SvgjsPath1136" d="M0 4A4 4 0 0 1 4 0H267A4 4 0 0 1 271 4V20A4 4 0 0 1 267 24H4A4 4 0 0 1 0 20Z " stroke-width="0" stroke="#6666ff" fill="none" opacity="0"></path><g id="SvgjsG1137" transform="translate(10 3)"><g id="SvgjsG1138" transform="translate(0 0)"><text id="SvgjsText1139" font-family="微软雅黑,宋体" fill="#6666ff" font-size="13" font-weight="normal" font-style="normal" text-anchor="start" x="0" y="14">IE9，Safari和Firefox中返回浏览器窗口大小</text></g></g></g><g id="SvgjsG1140" transform="translate(996.265625 -298)"><path id="SvgjsPath1141" d="M0 4A4 4 0 0 1 4 0H364A4 4 0 0 1 368 4V20A4 4 0 0 1 364 24H4A4 4 0 0 1 0 20Z " stroke-width="0" stroke="#6666ff" fill="none" opacity="0"></path><g id="SvgjsG1142" transform="translate(10 3)"><g id="SvgjsG1143" transform="translate(0 0)"><text id="SvgjsText1144" font-family="微软雅黑,宋体" fill="#6666ff" font-size="13" font-weight="normal" font-style="normal" text-anchor="start" x="0" y="14">opera中表示页面视图容器（单个标签页对应的浏览器）大小</text></g></g></g><g id="SvgjsG1145" transform="translate(799.3125 -238)"><path id="SvgjsPath1146" d="M0 4A4 4 0 0 1 4 0H163A4 4 0 0 1 167 4V20A4 4 0 0 1 163 24H4A4 4 0 0 1 0 20Z " stroke-width="0" stroke="#6666ff" fill="none" opacity="0"></path><path id="SvgjsPath1147" d="M167 13L183 13 " stroke="#6666ff" stroke-width="1"></path><g id="SvgjsG1148" transform="translate(168 5)"><path id="SvgjsPath1149" d="M0 7A7 7 0 0 1 7 0A7 7 0 1 1 0 7Z " fill="#ffffff"></path><path id="SvgjsPath1150" d="M7 1A6 6 0 0 0 1 7A6 6 0 1 0 7 1ZM0 7A7 7 0 0 1 7 0A7 7 0 1 1 0 7ZM3 6H11V8H3V5Z " fill="#7c8084"></path></g><g id="SvgjsG1151" transform="translate(10 3)"><g id="SvgjsG1152" transform="translate(0 0)"><text id="SvgjsText1153" font-family="微软雅黑,宋体" fill="#6666ff" font-size="13" font-weight="normal" font-style="normal" text-anchor="start" x="0" y="14">innerWidth,innerHeight</text></g></g></g><g id="SvgjsG1157" transform="translate(993 -268)"><path id="SvgjsPath1158" d="M0 4A4 4 0 0 1 4 0H194A4 4 0 0 1 198 4V20A4 4 0 0 1 194 24H4A4 4 0 0 1 0 20Z " stroke-width="0" stroke="#6666ff" fill="none" opacity="0"></path><g id="SvgjsG1159" transform="translate(10 3)"><g id="SvgjsG1160" transform="translate(0 0)"><text id="SvgjsText1161" font-family="微软雅黑,宋体" fill="#6666ff" font-size="13" font-weight="normal" font-style="normal" text-anchor="start" x="0" y="14">页面视图区大小(减去边框宽度)</text></g></g></g><g id="SvgjsG1162" transform="translate(993 -238)"><path id="SvgjsPath1163" d="M0 4A4 4 0 0 1 4 0H343A4 4 0 0 1 347 4V20A4 4 0 0 1 343 24H4A4 4 0 0 1 0 20Z " stroke-width="0" stroke="#6666ff" fill="none" opacity="0"></path><g id="SvgjsG1164" transform="translate(10 3)"><g id="SvgjsG1165" transform="translate(0 0)"><text id="SvgjsText1166" font-family="微软雅黑,宋体" fill="#6666ff" font-size="13" font-weight="normal" font-style="normal" text-anchor="start" x="0" y="14">chrome中outerHeight与innerHeight等表示的含义相同</text></g></g></g><g id="SvgjsG1167" transform="translate(993 -208)"><path id="SvgjsPath1168" d="M0 4A4 4 0 0 1 4 0H198A4 4 0 0 1 202 4V20A4 4 0 0 1 198 24H4A4 4 0 0 1 0 20Z " stroke-width="0" stroke="#6666ff" fill="none" opacity="0"></path><g id="SvgjsG1169" transform="translate(10 3)"><g id="SvgjsG1170" transform="translate(0 0)"><text id="SvgjsText1171" font-family="微软雅黑,宋体" fill="#6666ff" font-size="13" font-weight="normal" font-style="normal" text-anchor="start" x="0" y="14">属性值包括滚动条的高度和宽度</text></g></g></g><g id="SvgjsG1172" transform="translate(670.3125 -178)"><path id="SvgjsPath1173" d="M0 4A4 4 0 0 1 4 0H112A4 4 0 0 1 116 4V34A4 4 0 0 1 112 38H4A4 4 0 0 1 0 34Z " stroke-width="0" stroke="#6666ff" fill="none" opacity="0"></path><path id="SvgjsPath1174" d="M116 20L132 20 " stroke="#6666ff" stroke-width="1"></path><g id="SvgjsG1175" transform="translate(117 12)"><path id="SvgjsPath1176" d="M0 7A7 7 0 0 1 7 0A7 7 0 1 1 0 7Z " fill="#ffffff"></path><path id="SvgjsPath1177" d="M7 1A6 6 0 0 0 1 7A6 6 0 1 0 7 1ZM0 7A7 7 0 0 1 7 0A7 7 0 1 1 0 7ZM3 6H11V8H3V5Z " fill="#7c8084"></path></g><g id="SvgjsG1178" transform="translate(40 3)"><g id="SvgjsG1179" transform="translate(0 6)"><text id="SvgjsText1180" font-family="微软雅黑,宋体" fill="#6666ff" font-size="13" font-weight="normal" font-style="normal" text-anchor="start" x="0" y="14">iframe元素</text></g><g id="SvgjsG1181" transform="translate(-30 0)" style="cursor: pointer;"><path id="SvgjsPath1182" d="M3 3.0450000762939453H7.36299991607666V27.045000076293945H3V3.0450000762939453ZM22.091999053955078 15C24.204998016357422 15 26.040998458862305 14.597999572753906 27 14V3.6540000438690186C26.04199981689453 4.250999927520752 24.204998016357422 4.654000282287598 22.091999053955078 4.654000282287598C19.976999282836914 4.654000282287598 18.138999938964844 4.250999927520752 17.180999755859375 3.6540000438690186V14C18.139999389648438 14.597999572753906 19.979000091552734 15 22.091999053955078 15ZM17.18199920654297 3.6579999923706055C16.076000213623047 3.255000114440918 14.454000473022461 3 12.649999618530273 3C10.375999450683594 3 8.393999099731445 3.4029998779296875 7.362999439239502 4V14.345999717712402C8.392999649047852 13.74899959564209 10.37399959564209 13.345999717712402 12.649999618530273 13.345999717712402C14.453999519348145 13.345999717712402 16.076000213623047 13.601999282836914 17.18199920654297 14.003000259399414V3.6579999923706055Z " fill="#488f55" transform="translate(0 0)"></path></g></g></g><g id="SvgjsG1184" transform="translate(813 -171)"><path id="SvgjsPath1185" d="M0 4A4 4 0 0 1 4 0H315A4 4 0 0 1 319 4V20A4 4 0 0 1 315 24H4A4 4 0 0 1 0 20Z " stroke-width="0" stroke="#6666ff" fill="none" opacity="0"></path><g id="SvgjsG1186" transform="translate(10 3)"><g id="SvgjsG1187" transform="translate(0 0)"><text id="SvgjsText1188" font-family="微软雅黑,宋体" fill="#6666ff" font-size="13" font-weight="normal" font-style="normal" text-anchor="start" x="0" y="14">返回一个类似数组的对象，成员为页面内的所有框架</text></g></g></g><g id="SvgjsG1189" transform="translate(670.3125 -111)"><path id="SvgjsPath1190" d="M0 4A4 4 0 0 1 4 0H93A4 4 0 0 1 97 4V34A4 4 0 0 1 93 38H4A4 4 0 0 1 0 34Z " stroke-width="0" stroke="#6666ff" fill="none" opacity="0"></path><path id="SvgjsPath1191" d="M97 20L113 20 " stroke="#6666ff" stroke-width="1"></path><g id="SvgjsG1192" transform="translate(98 12)"><path id="SvgjsPath1193" d="M0 7A7 7 0 0 1 7 0A7 7 0 1 1 0 7Z " fill="#ffffff"></path><path id="SvgjsPath1194" d="M7 1A6 6 0 0 0 1 7A6 6 0 1 0 7 1ZM0 7A7 7 0 0 1 7 0A7 7 0 1 1 0 7ZM3 6H11V8H3V5Z " fill="#7c8084"></path></g><g id="SvgjsG1195" transform="translate(40 3)"><g id="SvgjsG1196" transform="translate(0 6)"><text id="SvgjsText1197" font-family="微软雅黑,宋体" fill="#6666ff" font-size="13" font-weight="normal" font-style="normal" text-anchor="start" x="0" y="14">onerror</text></g><g id="SvgjsG1198" transform="translate(-30 0)" style="cursor: pointer;"><path id="SvgjsPath1199" d="M3 3.0450000762939453H7.36299991607666V27.045000076293945H3V3.0450000762939453ZM22.091999053955078 15C24.204998016357422 15 26.040998458862305 14.597999572753906 27 14V3.6540000438690186C26.04199981689453 4.250999927520752 24.204998016357422 4.654000282287598 22.091999053955078 4.654000282287598C19.976999282836914 4.654000282287598 18.138999938964844 4.250999927520752 17.180999755859375 3.6540000438690186V14C18.139999389648438 14.597999572753906 19.979000091552734 15 22.091999053955078 15ZM17.18199920654297 3.6579999923706055C16.076000213623047 3.255000114440918 14.454000473022461 3 12.649999618530273 3C10.375999450683594 3 8.393999099731445 3.4029998779296875 7.362999439239502 4V14.345999717712402C8.392999649047852 13.74899959564209 10.37399959564209 13.345999717712402 12.649999618530273 13.345999717712402C14.453999519348145 13.345999717712402 16.076000213623047 13.601999282836914 17.18199920654297 14.003000259399414V3.6579999923706055Z " fill="#488f55" transform="translate(0 0)"></path></g></g></g><g id="SvgjsG1203" transform="translate(794.125 -134)"><path id="SvgjsPath1204" d="M0 4A4 4 0 0 1 4 0H78A4 4 0 0 1 82 4V20A4 4 0 0 1 78 24H4A4 4 0 0 1 0 20Z " stroke-width="0" stroke="#6666ff" fill="none" opacity="0"></path><g id="SvgjsG1205" transform="translate(10 3)"><g id="SvgjsG1206" transform="translate(0 0)"><text id="SvgjsText1207" font-family="微软雅黑,宋体" fill="#6666ff" font-size="13" font-weight="normal" font-style="normal" text-anchor="start" x="0" y="14">js语言错误</text></g></g></g><g id="SvgjsG1208" transform="translate(794.125 -104)"><path id="SvgjsPath1209" d="M0 4A4 4 0 0 1 4 0H107A4 4 0 0 1 111 4V20A4 4 0 0 1 107 24H4A4 4 0 0 1 0 20Z " stroke-width="0" stroke="#6666ff" fill="none" opacity="0"></path><g id="SvgjsG1210" transform="translate(10 3)"><g id="SvgjsG1211" transform="translate(0 0)"><text id="SvgjsText1212" font-family="微软雅黑,宋体" fill="#6666ff" font-size="13" font-weight="normal" font-style="normal" text-anchor="start" x="0" y="14">脚本文件不存在</text></g></g></g><g id="SvgjsG1213" transform="translate(794.125 -74)"><path id="SvgjsPath1214" d="M0 4A4 4 0 0 1 4 0H107A4 4 0 0 1 111 4V20A4 4 0 0 1 107 24H4A4 4 0 0 1 0 20Z " stroke-width="0" stroke="#6666ff" fill="none" opacity="0"></path><g id="SvgjsG1215" transform="translate(10 3)"><g id="SvgjsG1216" transform="translate(0 0)"><text id="SvgjsText1217" font-family="微软雅黑,宋体" fill="#6666ff" font-size="13" font-weight="normal" font-style="normal" text-anchor="start" x="0" y="14">图像文件不存在</text></g></g></g><g id="SvgjsG1218" transform="translate(194.875 -44)"><path id="SvgjsPath1219" d="M0 4A4 4 0 0 1 4 0H86A4 4 0 0 1 90 4V34A4 4 0 0 1 86 38H4A4 4 0 0 1 0 34Z " stroke-width="0" stroke="#6666ff" fill="none" opacity="0"></path><path id="SvgjsPath1220" d="M90 20L106 20 " stroke="rgba(0, 0, 0, 0)" stroke-width="1"></path><g id="SvgjsG1221" transform="translate(91 12)"><path id="SvgjsPath1222" d="M0 7A7 7 0 0 1 7 0A7 7 0 1 1 0 7Z " fill="#ffffff"></path><path id="SvgjsPath1223" d="M7 1A6 6 0 0 0 1 7A6 6 0 1 0 7 1ZM0 7A7 7 0 0 1 7 0A7 7 0 1 1 0 7ZM3 6H6V3H8V6H11V8H8V11H6V8H3V6Z " fill="#7c8084"></path></g><g id="SvgjsG1224" transform="translate(40 3)"><g id="SvgjsG1225" transform="translate(0 6)"><text id="SvgjsText1226" font-family="微软雅黑,宋体" fill="#6666ff" font-size="13" font-weight="normal" font-style="normal" text-anchor="start" x="0" y="14">screen</text></g><g id="SvgjsG1227" transform="translate(-30 0)" style="cursor: pointer;"><path id="SvgjsPath1228" d="M3 15A12 12 0 0 1 15 3A12 12 0 1 1 3 15Z " fill="#38628c" transform="translate(0 0)"></path><g id="SvgjsG1229" transform="translate(3 3)"><text id="SvgjsText1230" font-family="黑体" fill="#ffffff" font-size="20" text-anchor="middle" x="12" y="19">2</text></g></g></g></g><g id="SvgjsG1231" transform="translate(194.875 23)"><path id="SvgjsPath1232" d="M0 4A4 4 0 0 1 4 0H105A4 4 0 0 1 109 4V34A4 4 0 0 1 105 38H4A4 4 0 0 1 0 34Z " stroke-width="0" stroke="#6666ff" fill="none" opacity="0"></path><path id="SvgjsPath1233" d="M109 20L125 20 " stroke="#6666ff" stroke-width="1"></path><g id="SvgjsG1234" transform="translate(110 12)"><path id="SvgjsPath1235" d="M0 7A7 7 0 0 1 7 0A7 7 0 1 1 0 7Z " fill="#ffffff"></path><path id="SvgjsPath1236" d="M7 1A6 6 0 0 0 1 7A6 6 0 1 0 7 1ZM0 7A7 7 0 0 1 7 0A7 7 0 1 1 0 7ZM3 6H11V8H3V5Z " fill="#7c8084"></path></g><g id="SvgjsG1237" transform="translate(40 3)"><g id="SvgjsG1238" transform="translate(0 6)"><text id="SvgjsText1239" font-family="微软雅黑,宋体" fill="#6666ff" font-size="13" font-weight="normal" font-style="normal" text-anchor="start" x="0" y="14">navigator</text></g><g id="SvgjsG1240" transform="translate(-30 0)" style="cursor: pointer;"><path id="SvgjsPath1241" d="M3 15A12 12 0 0 1 15 3A12 12 0 1 1 3 15Z " fill="#38628c" transform="translate(0 0)"></path><g id="SvgjsG1242" transform="translate(3 3)"><text id="SvgjsText1243" font-family="黑体" fill="#ffffff" font-size="20" text-anchor="middle" x="12" y="19">3</text></g></g></g></g><g id="SvgjsG1247" transform="translate(330.9375 0)"><path id="SvgjsPath1248" d="M0 4A4 4 0 0 1 4 0H502A4 4 0 0 1 506 4V20A4 4 0 0 1 502 24H4A4 4 0 0 1 0 20Z " stroke-width="0" stroke="#6666ff" fill="none" opacity="0"></path><g id="SvgjsG1249" transform="translate(10 3)"><g id="SvgjsG1250" transform="translate(0 0)"><text id="SvgjsText1251" font-family="微软雅黑,宋体" fill="#6666ff" font-size="13" font-weight="normal" font-style="normal" text-anchor="start" x="0" y="14">Navigator.userAgent属性返回浏览器的User-Agent字符串，用来标示浏览器的种类</text></g></g></g><g id="SvgjsG1252" transform="translate(330.9375 30)"><path id="SvgjsPath1253" d="M0 4A4 4 0 0 1 4 0H198A4 4 0 0 1 202 4V20A4 4 0 0 1 198 24H4A4 4 0 0 1 0 20Z " stroke-width="0" stroke="#6666ff" fill="none" opacity="0"></path><g id="SvgjsG1254" transform="translate(10 3)"><g id="SvgjsG1255" transform="translate(0 0)"><text id="SvgjsText1256" font-family="微软雅黑,宋体" fill="#6666ff" font-size="13" font-weight="normal" font-style="normal" text-anchor="start" x="0" y="14">大多用来识别移动设备的浏览器</text></g></g></g><g id="SvgjsG1257" transform="translate(330.9375 60)"><path id="SvgjsPath1258" d="M0 4A4 4 0 0 1 4 0H424A4 4 0 0 1 428 4V20A4 4 0 0 1 424 24H4A4 4 0 0 1 0 20Z " stroke-width="0" stroke="#6666ff" fill="none" opacity="0"></path><g id="SvgjsG1259" transform="translate(10 3)"><g id="SvgjsG1260" transform="translate(0 0)"><text id="SvgjsText1261" font-family="微软雅黑,宋体" fill="#6666ff" font-size="13" font-weight="normal" font-style="normal" text-anchor="start" x="0" y="14">navigator.plugins(检测ie中的插件用ActiveXobject创建一个特定插件)</text></g></g></g><g id="SvgjsG1262" transform="translate(194.875 90)"><path id="SvgjsPath1263" d="M0 4A4 4 0 0 1 4 0H88A4 4 0 0 1 92 4V34A4 4 0 0 1 88 38H4A4 4 0 0 1 0 34Z " stroke-width="0" stroke="#6666ff" fill="none" opacity="0"></path><path id="SvgjsPath1264" d="M92 20L108 20 " stroke="rgba(0, 0, 0, 0)" stroke-width="1"></path><g id="SvgjsG1265" transform="translate(93 12)"><path id="SvgjsPath1266" d="M0 7A7 7 0 0 1 7 0A7 7 0 1 1 0 7Z " fill="#ffffff"></path><path id="SvgjsPath1267" d="M7 1A6 6 0 0 0 1 7A6 6 0 1 0 7 1ZM0 7A7 7 0 0 1 7 0A7 7 0 1 1 0 7ZM3 6H6V3H8V6H11V8H8V11H6V8H3V6Z " fill="#7c8084"></path></g><g id="SvgjsG1268" transform="translate(40 3)"><g id="SvgjsG1269" transform="translate(0 6)"><text id="SvgjsText1270" font-family="微软雅黑,宋体" fill="#6666ff" font-size="13" font-weight="normal" font-style="normal" text-anchor="start" x="0" y="14">history</text></g><g id="SvgjsG1271" transform="translate(-30 0)" style="cursor: pointer;"><path id="SvgjsPath1272" d="M3 15A12 12 0 0 1 15 3A12 12 0 1 1 3 15Z " fill="#38628c" transform="translate(0 0)"></path><g id="SvgjsG1273" transform="translate(3 3)"><text id="SvgjsText1274" font-family="黑体" fill="#ffffff" font-size="20" text-anchor="middle" x="12" y="19">4</text></g></g></g></g><g id="SvgjsG1275" transform="translate(194.875 134)"><path id="SvgjsPath1276" d="M0 4A4 4 0 0 1 4 0H96A4 4 0 0 1 100 4V34A4 4 0 0 1 96 38H4A4 4 0 0 1 0 34Z " stroke-width="0" stroke="#6666ff" fill="none" opacity="0"></path><path id="SvgjsPath1277" d="M100 20L116 20 " stroke="rgba(0, 0, 0, 0)" stroke-width="1"></path><g id="SvgjsG1278" transform="translate(101 12)"><path id="SvgjsPath1279" d="M0 7A7 7 0 0 1 7 0A7 7 0 1 1 0 7Z " fill="#ffffff"></path><path id="SvgjsPath1280" d="M7 1A6 6 0 0 0 1 7A6 6 0 1 0 7 1ZM0 7A7 7 0 0 1 7 0A7 7 0 1 1 0 7ZM3 6H6V3H8V6H11V8H8V11H6V8H3V6Z " fill="#7c8084"></path></g><g id="SvgjsG1281" transform="translate(40 3)"><g id="SvgjsG1282" transform="translate(0 6)"><text id="SvgjsText1283" font-family="微软雅黑,宋体" fill="#6666ff" font-size="13" font-weight="normal" font-style="normal" text-anchor="start" x="0" y="14">location</text></g><g id="SvgjsG1284" transform="translate(-30 0)" style="cursor: pointer;"><path id="SvgjsPath1285" d="M3 15A12 12 0 0 1 15 3A12 12 0 1 1 3 15Z " fill="#38628c" transform="translate(0 0)"></path><g id="SvgjsG1286" transform="translate(3 3)"><text id="SvgjsText1287" font-family="黑体" fill="#ffffff" font-size="20" text-anchor="middle" x="12" y="19">5</text></g></g></g></g><g id="SvgjsG1288" transform="translate(-347.734375 -526.5)"><path id="SvgjsPath1289" d="M0 4A4 4 0 0 1 4 0H48A4 4 0 0 1 52 4V20A4 4 0 0 1 48 24H4A4 4 0 0 1 0 20Z " stroke-width="0" stroke="#6666ff" fill="none" opacity="0"></path><g id="SvgjsG1290" transform="translate(10 3)"><g id="SvgjsG1291" transform="translate(0 0)"><text id="SvgjsText1292" font-family="微软雅黑,宋体" fill="#6666ff" font-size="13" font-weight="normal" font-style="normal" text-anchor="start" x="0" y="14">node</text></g></g></g><g id="SvgjsG1293" transform="translate(-379.296875 -496.5)"><path id="SvgjsPath1294" d="M0 4A4 4 0 0 1 4 0H80A4 4 0 0 1 84 4V20A4 4 0 0 1 80 24H4A4 4 0 0 1 0 20Z " stroke-width="0" stroke="#6666ff" fill="none" opacity="0"></path><g id="SvgjsG1295" transform="translate(10 3)"><g id="SvgjsG1296" transform="translate(0 0)"><text id="SvgjsText1297" font-family="微软雅黑,宋体" fill="#6666ff" font-size="13" font-weight="normal" font-style="normal" text-anchor="start" x="0" y="14">document</text></g></g></g><g id="SvgjsG1298" transform="translate(-366.390625 -466.5)"><path id="SvgjsPath1299" d="M0 4A4 4 0 0 1 4 0H67A4 4 0 0 1 71 4V20A4 4 0 0 1 67 24H4A4 4 0 0 1 0 20Z " stroke-width="0" stroke="#6666ff" fill="none" opacity="0"></path><g id="SvgjsG1300" transform="translate(10 3)"><g id="SvgjsG1301" transform="translate(0 0)"><text id="SvgjsText1302" font-family="微软雅黑,宋体" fill="#6666ff" font-size="13" font-weight="normal" font-style="normal" text-anchor="start" x="0" y="14">element</text></g></g></g><g id="SvgjsG1303" transform="translate(-339.421875 -436.5)"><path id="SvgjsPath1304" d="M0 4A4 4 0 0 1 4 0H40A4 4 0 0 1 44 4V20A4 4 0 0 1 40 24H4A4 4 0 0 1 0 20Z " stroke-width="0" stroke="#6666ff" fill="none" opacity="0"></path><g id="SvgjsG1305" transform="translate(10 3)"><g id="SvgjsG1306" transform="translate(0 0)"><text id="SvgjsText1307" font-family="微软雅黑,宋体" fill="#6666ff" font-size="13" font-weight="normal" font-style="normal" text-anchor="start" x="0" y="14">text</text></g></g></g><g id="SvgjsG1308" transform="translate(-375.15625 -406.5)"><path id="SvgjsPath1309" d="M0 4A4 4 0 0 1 4 0H75A4 4 0 0 1 79 4V20A4 4 0 0 1 75 24H4A4 4 0 0 1 0 20Z " stroke-width="0" stroke="#6666ff" fill="none" opacity="0"></path><g id="SvgjsG1310" transform="translate(10 3)"><g id="SvgjsG1311" transform="translate(0 0)"><text id="SvgjsText1312" font-family="微软雅黑,宋体" fill="#6666ff" font-size="13" font-weight="normal" font-style="normal" text-anchor="start" x="0" y="14">comment</text></g></g></g><g id="SvgjsG1313" transform="translate(-354.765625 -376.5)"><path id="SvgjsPath1314" d="M0 4A4 4 0 0 1 4 0H55A4 4 0 0 1 59 4V20A4 4 0 0 1 55 24H4A4 4 0 0 1 0 20Z " stroke-width="0" stroke="#6666ff" fill="none" opacity="0"></path><g id="SvgjsG1315" transform="translate(10 3)"><g id="SvgjsG1316" transform="translate(0 0)"><text id="SvgjsText1317" font-family="微软雅黑,宋体" fill="#6666ff" font-size="13" font-weight="normal" font-style="normal" text-anchor="start" x="0" y="14">子主题</text></g></g></g><g id="SvgjsG1318" transform="translate(-439.078125 -346.5)"><path id="SvgjsPath1319" d="M0 4A4 4 0 0 1 4 0H139A4 4 0 0 1 143 4V20A4 4 0 0 1 139 24H4A4 4 0 0 1 0 20Z " stroke-width="0" stroke="#6666ff" fill="none" opacity="0"></path><g id="SvgjsG1320" transform="translate(10 3)"><g id="SvgjsG1321" transform="translate(0 0)"><text id="SvgjsText1322" font-family="微软雅黑,宋体" fill="#6666ff" font-size="13" font-weight="normal" font-style="normal" text-anchor="start" x="0" y="14">documentFragment</text></g></g></g><g id="SvgjsG1323" transform="translate(-409.3125 -316.5)"><path id="SvgjsPath1324" d="M0 4A4 4 0 0 1 4 0H110A4 4 0 0 1 114 4V20A4 4 0 0 1 110 24H4A4 4 0 0 1 0 20Z " stroke-width="0" stroke="#6666ff" fill="none" opacity="0"></path><g id="SvgjsG1325" transform="translate(10 3)"><g id="SvgjsG1326" transform="translate(0 0)"><text id="SvgjsText1327" font-family="微软雅黑,宋体" fill="#6666ff" font-size="13" font-weight="normal" font-style="normal" text-anchor="start" x="0" y="14">documentType</text></g></g></g><g id="SvgjsG1328" transform="translate(-337.609375 -286.5)"><path id="SvgjsPath1329" d="M0 4A4 4 0 0 1 4 0H38A4 4 0 0 1 42 4V20A4 4 0 0 1 38 24H4A4 4 0 0 1 0 20Z " stroke-width="0" stroke="#6666ff" fill="none" opacity="0"></path><g id="SvgjsG1330" transform="translate(10 3)"><g id="SvgjsG1331" transform="translate(0 0)"><text id="SvgjsText1332" font-family="微软雅黑,宋体" fill="#6666ff" font-size="13" font-weight="normal" font-style="normal" text-anchor="start" x="0" y="14">attr</text></g></g></g><g id="SvgjsG1333" transform="translate(-268.765625 -406.5)"><path id="SvgjsPath1334" d="M0 4A4 4 0 0 1 4 0H68A4 4 0 0 1 72 4V20A4 4 0 0 1 68 24H4A4 4 0 0 1 0 20Z " stroke-width="0" stroke="#6666ff" fill="none" opacity="0"></path><path id="SvgjsPath1335" d="M0 13L-16 13 " stroke="#6666ff" stroke-width="1"></path><g id="SvgjsG1336" transform="translate(-15 5)"><path id="SvgjsPath1337" d="M0 7A7 7 0 0 1 7 0A7 7 0 1 1 0 7Z " fill="#ffffff"></path><path id="SvgjsPath1338" d="M7 1A6 6 0 0 0 1 7A6 6 0 1 0 7 1ZM0 7A7 7 0 0 1 7 0A7 7 0 1 1 0 7ZM3 6H11V8H3V5Z " fill="#7c8084"></path></g><g id="SvgjsG1339" transform="translate(10 3)"><g id="SvgjsG1340" transform="translate(0 0)"><text id="SvgjsText1341" font-family="微软雅黑,宋体" fill="#6666ff" font-size="13" font-weight="normal" font-style="normal" text-anchor="start" x="0" y="14">节点类型</text></g></g></g><g id="SvgjsG1351" transform="translate(-481.375 -256.5)"><path id="SvgjsPath1352" d="M0 4A4 4 0 0 1 4 0H182A4 4 0 0 1 186 4V20A4 4 0 0 1 182 24H4A4 4 0 0 1 0 20Z " stroke-width="0" stroke="#6666ff" fill="none" opacity="0"></path><g id="SvgjsG1353" transform="translate(10 3)"><g id="SvgjsG1354" transform="translate(0 0)"><text id="SvgjsText1355" font-family="微软雅黑,宋体" fill="#6666ff" font-size="13" font-weight="normal" font-style="normal" text-anchor="start" x="0" y="14">appendChild（newNode）</text></g></g></g><g id="SvgjsG1356" transform="translate(-544.828125 -226.5)"><path id="SvgjsPath1357" d="M0 4A4 4 0 0 1 4 0H245A4 4 0 0 1 249 4V20A4 4 0 0 1 245 24H4A4 4 0 0 1 0 20Z " stroke-width="0" stroke="#6666ff" fill="none" opacity="0"></path><g id="SvgjsG1358" transform="translate(10 3)"><g id="SvgjsG1359" transform="translate(0 0)"><text id="SvgjsText1360" font-family="微软雅黑,宋体" fill="#6666ff" font-size="13" font-weight="normal" font-style="normal" text-anchor="start" x="0" y="14">insertBefore（newNode，oldNode）</text></g></g></g><g id="SvgjsG1361" transform="translate(-450.390625 -196.5)"><path id="SvgjsPath1362" d="M0 4A4 4 0 0 1 4 0H151A4 4 0 0 1 155 4V20A4 4 0 0 1 151 24H4A4 4 0 0 1 0 20Z " stroke-width="0" stroke="#6666ff" fill="none" opacity="0"></path><g id="SvgjsG1363" transform="translate(10 3)"><g id="SvgjsG1364" transform="translate(0 0)"><text id="SvgjsText1365" font-family="微软雅黑,宋体" fill="#6666ff" font-size="13" font-weight="normal" font-style="normal" text-anchor="start" x="0" y="14">replaceChild(new,old)</text></g></g></g><g id="SvgjsG1366" transform="translate(-492.75 -166.5)"><path id="SvgjsPath1367" d="M0 4A4 4 0 0 1 4 0H193A4 4 0 0 1 197 4V20A4 4 0 0 1 193 24H4A4 4 0 0 1 0 20Z " stroke-width="0" stroke="#6666ff" fill="none" opacity="0"></path><g id="SvgjsG1368" transform="translate(10 3)"><g id="SvgjsG1369" transform="translate(0 0)"><text id="SvgjsText1370" font-family="微软雅黑,宋体" fill="#6666ff" font-size="13" font-weight="normal" font-style="normal" text-anchor="start" x="0" y="14">removeChild（targetNode）</text></g></g></g><g id="SvgjsG1371" transform="translate(-586.453125 -136.5)"><path id="SvgjsPath1372" d="M0 4A4 4 0 0 1 4 0H55A4 4 0 0 1 59 4V20A4 4 0 0 1 55 24H4A4 4 0 0 1 0 20Z " stroke-width="0" stroke="#6666ff" fill="none" opacity="0"></path><g id="SvgjsG1373" transform="translate(10 3)"><g id="SvgjsG1374" transform="translate(0 0)"><text id="SvgjsText1375" font-family="微软雅黑,宋体" fill="#6666ff" font-size="13" font-weight="normal" font-style="normal" text-anchor="start" x="0" y="14">深复制</text></g></g></g><g id="SvgjsG1376" transform="translate(-586.453125 -106.5)"><path id="SvgjsPath1377" d="M0 4A4 4 0 0 1 4 0H55A4 4 0 0 1 59 4V20A4 4 0 0 1 55 24H4A4 4 0 0 1 0 20Z " stroke-width="0" stroke="#6666ff" fill="none" opacity="0"></path><g id="SvgjsG1378" transform="translate(10 3)"><g id="SvgjsG1379" transform="translate(0 0)"><text id="SvgjsText1380" font-family="微软雅黑,宋体" fill="#6666ff" font-size="13" font-weight="normal" font-style="normal" text-anchor="start" x="0" y="14">浅复制</text></g></g></g><g id="SvgjsG1381" transform="translate(-500.453125 -121.5)"><path id="SvgjsPath1382" d="M0 4A4 4 0 0 1 4 0H201A4 4 0 0 1 205 4V20A4 4 0 0 1 201 24H4A4 4 0 0 1 0 20Z " stroke-width="0" stroke="#6666ff" fill="none" opacity="0"></path><path id="SvgjsPath1383" d="M0 13L-16 13 " stroke="#6666ff" stroke-width="1"></path><g id="SvgjsG1384" transform="translate(-15 5)"><path id="SvgjsPath1385" d="M0 7A7 7 0 0 1 7 0A7 7 0 1 1 0 7Z " fill="#ffffff"></path><path id="SvgjsPath1386" d="M7 1A6 6 0 0 0 1 7A6 6 0 1 0 7 1ZM0 7A7 7 0 0 1 7 0A7 7 0 1 1 0 7ZM3 6H11V8H3V5Z " fill="#7c8084"></path></g><g id="SvgjsG1387" transform="translate(10 3)"><g id="SvgjsG1388" transform="translate(0 0)"><text id="SvgjsText1389" font-family="微软雅黑,宋体" fill="#6666ff" font-size="13" font-weight="normal" font-style="normal" text-anchor="start" x="0" y="14">cloneNode( )不会复制处理程序</text></g></g></g><g id="SvgjsG1392" transform="translate(-493.59375 -76.5)"><path id="SvgjsPath1393" d="M0 4A4 4 0 0 1 4 0H194A4 4 0 0 1 198 4V20A4 4 0 0 1 194 24H4A4 4 0 0 1 0 20Z " stroke-width="0" stroke="#6666ff" fill="none" opacity="0"></path><g id="SvgjsG1394" transform="translate(10 3)"><g id="SvgjsG1395" transform="translate(0 0)"><text id="SvgjsText1396" font-family="微软雅黑,宋体" fill="#6666ff" font-size="13" font-weight="normal" font-style="normal" text-anchor="start" x="0" y="14">normalize( )清理空的文本节点</text></g></g></g><g id="SvgjsG1397" transform="translate(-268.765625 -166.5)"><path id="SvgjsPath1398" d="M0 4A4 4 0 0 1 4 0H68A4 4 0 0 1 72 4V20A4 4 0 0 1 68 24H4A4 4 0 0 1 0 20Z " stroke-width="0" stroke="#6666ff" fill="none" opacity="0"></path><path id="SvgjsPath1399" d="M0 13L-16 13 " stroke="#6666ff" stroke-width="1"></path><g id="SvgjsG1400" transform="translate(-15 5)"><path id="SvgjsPath1401" d="M0 7A7 7 0 0 1 7 0A7 7 0 1 1 0 7Z " fill="#ffffff"></path><path id="SvgjsPath1402" d="M7 1A6 6 0 0 0 1 7A6 6 0 1 0 7 1ZM0 7A7 7 0 0 1 7 0A7 7 0 1 1 0 7ZM3 6H11V8H3V5Z " fill="#7c8084"></path></g><g id="SvgjsG1403" transform="translate(10 3)"><g id="SvgjsG1404" transform="translate(0 0)"><text id="SvgjsText1405" font-family="微软雅黑,宋体" fill="#6666ff" font-size="13" font-weight="normal" font-style="normal" text-anchor="start" x="0" y="14">操作节点</text></g></g></g><g id="SvgjsG1412" transform="translate(-675.4375 -46.5)"><path id="SvgjsPath1413" d="M0 4A4 4 0 0 1 4 0H118A4 4 0 0 1 122 4V20A4 4 0 0 1 118 24H4A4 4 0 0 1 0 20Z " stroke-width="0" stroke="#6666ff" fill="none" opacity="0"></path><g id="SvgjsG1414" transform="translate(10 3)"><g id="SvgjsG1415" transform="translate(0 0)"><text id="SvgjsText1416" font-family="微软雅黑,宋体" fill="#6666ff" font-size="13" font-weight="normal" font-style="normal" text-anchor="start" x="0" y="14">querySelectorAll</text></g></g></g><g id="SvgjsG1417" transform="translate(-659.375 -16.5)"><path id="SvgjsPath1418" d="M0 4A4 4 0 0 1 4 0H102A4 4 0 0 1 106 4V20A4 4 0 0 1 102 24H4A4 4 0 0 1 0 20Z " stroke-width="0" stroke="#6666ff" fill="none" opacity="0"></path><g id="SvgjsG1419" transform="translate(10 3)"><g id="SvgjsG1420" transform="translate(0 0)"><text id="SvgjsText1421" font-family="微软雅黑,宋体" fill="#6666ff" font-size="13" font-weight="normal" font-style="normal" text-anchor="start" x="0" y="14">querySelector</text></g></g></g><g id="SvgjsG1422" transform="translate(-526.515625 -31.5)"><path id="SvgjsPath1423" d="M0 4A4 4 0 0 1 4 0H326A4 4 0 0 1 330 4V20A4 4 0 0 1 326 24H4A4 4 0 0 1 0 20Z " stroke-width="0" stroke="#6666ff" fill="none" opacity="0"></path><path id="SvgjsPath1424" d="M0 13L-16 13 " stroke="#6666ff" stroke-width="1"></path><g id="SvgjsG1425" transform="translate(-15 5)"><path id="SvgjsPath1426" d="M0 7A7 7 0 0 1 7 0A7 7 0 1 1 0 7Z " fill="#ffffff"></path><path id="SvgjsPath1427" d="M7 1A6 6 0 0 0 1 7A6 6 0 1 0 7 1ZM0 7A7 7 0 0 1 7 0A7 7 0 1 1 0 7ZM3 6H11V8H3V5Z " fill="#7c8084"></path></g><g id="SvgjsG1428" transform="translate(10 3)"><g id="SvgjsG1429" transform="translate(0 0)"><text id="SvgjsText1430" font-family="微软雅黑,宋体" fill="#6666ff" font-size="13" font-weight="normal" font-style="normal" text-anchor="start" x="0" y="14">nodelist对象都是动态的，每次访问都会进行一次查询</text></g></g></g><g id="SvgjsG1433" transform="translate(-169.765625 -283.5)"><path id="SvgjsPath1434" d="M0 6A6 6 0 0 1 6 0H92A6 6 0 0 1 98 6V42A6 6 0 0 1 92 48H6A6 6 0 0 1 0 42Z " stroke-width="0" stroke="#6666ff" fill="none" opacity="0"></path><path id="SvgjsPath1435" d="M0 25L-16 25 " stroke="#6666ff" stroke-width="1"></path><g id="SvgjsG1436" transform="translate(-15 17)"><path id="SvgjsPath1437" d="M0 7A7 7 0 0 1 7 0A7 7 0 1 1 0 7Z " fill="#ffffff"></path><path id="SvgjsPath1438" d="M7 1A6 6 0 0 0 1 7A6 6 0 1 0 7 1ZM0 7A7 7 0 0 1 7 0A7 7 0 1 1 0 7ZM3 6H11V8H3V5Z " fill="#7c8084"></path></g><g id="SvgjsG1439" transform="translate(46 8)"><g id="SvgjsG1440" transform="translate(0 5)"><text id="SvgjsText1441" font-family="微软雅黑,宋体" fill="#6666ff" font-size="14" font-weight="normal" font-style="normal" text-anchor="start" x="0" y="15">DOM</text></g><g id="SvgjsG1442" transform="translate(-30 0)" style="cursor: pointer;"><path id="SvgjsPath1443" d="M3 15A12 12 0 0 1 15 3A12 12 0 1 1 3 15Z " fill="#000000"></path><path id="SvgjsPath1444" d="M14.913000106811523 3C8.335000038146973 3 3 8.331999778747559 3 14.911999702453613S8.333999633789062 26.823999404907227 14.913000106811523 26.823999404907227C21.493000030517578 26.823999404907227 26.82699966430664 21.492000579833984 26.82699966430664 14.911999702453613C26.826000213623047 8.331999778747559 21.492000579833984 3 14.913000106811523 3ZM19.261999130249023 10.244000434875488C20.511999130249023 10.244000434875488 21.525999069213867 11.258000373840332 21.525999069213867 12.508000373840332C21.525999069213867 13.756999969482422 20.511999130249023 14.770000457763672 19.261999130249023 14.770000457763672C18.013999938964844 14.770000457763672 16.998998641967773 13.756999969482422 16.998998641967773 12.508000373840332C16.999000549316406 11.256999969482422 18.013999938964844 10.244000434875488 19.261999130249023 10.244000434875488ZM10.517999649047852 10.244000434875488C11.767999649047852 10.244000434875488 12.779999732971191 11.258000373840332 12.779999732971191 12.508000373840332C12.779999732971191 13.756999969482422 11.767999649047852 14.770000457763672 10.517999649047852 14.770000457763672S8.254999160766602 13.756999969482422 8.254999160766602 12.508000373840332C8.253999710083008 11.256999969482422 9.267999649047852 10.244000434875488 10.517999649047852 10.244000434875488ZM21.339000701904297 19.05500030517578C19.881000518798828 21.172000885009766 17.479000091552734 22.439001083374023 14.913000106811523 22.439001083374023C12.346000671386719 22.439001083374023 9.940999984741211 21.172000885009766 8.484001159667969 19.05299949645996C8.157000541687012 18.578001022338867 8.277000427246094 17.93000030517578 8.754000663757324 17.60300064086914C9.22900104522705 17.2760009765625 9.87700080871582 17.39699935913086 10.204000473022461 17.871999740600586C11.271000862121582 19.426000595092773 13.033000946044922 20.351999282836914 14.914000511169434 20.351999282836914C16.792001724243164 20.351999282836914 18.553001403808594 19.423999786376953 19.621000289916992 17.871999740600586C19.95199966430664 17.39699935913086 20.600000381469727 17.2760009765625 21.06999969482422 17.60300064086914C21.54599952697754 17.93000030517578 21.66699981689453 18.577999114990234 21.339000701904297 19.05500030517578Z " fill="#ffe201" transform="translate(0 0)"></path></g></g></g></g></g></svg>